<svg xmlns="http://www.w3.org/2000/svg" width="800" height="200" viewBox="0 0 800 200"><defs><linearGradient id="bg" x1="0%" y1="0%" x2="100%" y2="100%"><stop offset="0%" style="stop-color:#4F8CFF;stop-opacity:1" /><stop offset="100%" style="stop-color:#7EB8FF;stop-opacity:1" /></linearGradient></defs><rect width="800" height="200" rx="20" fill="url(#bg)"/><g transform="translate(680,85)"><ellipse cx="0" cy="18" rx="30" ry="22" fill="white" opacity="0.9"/><circle cx="0" cy="-8" r="26" fill="white"/><ellipse cx="-18" cy="-20" rx="8" ry="12" fill="white" transform="rotate(-20,-18,-20)"/><ellipse cx="18" cy="-20" rx="8" ry="12" fill="white" transform="rotate(20,18,-20)"/><ellipse cx="-17" cy="-19" rx="5" ry="8" fill="#7EB8FF" transform="rotate(-20,-17,-19)"/><ellipse cx="17" cy="-19" rx="5" ry="8" fill="#7EB8FF" transform="rotate(20,17,-19)"/><ellipse cx="-9" cy="-12" rx="6" ry="7" fill="#2D3748"/><ellipse cx="9" cy="-12" rx="6" ry="7" fill="#2D3748"/><circle cx="-7" cy="-15" r="2.5" fill="white" opacity="0.8"/><circle cx="11" cy="-15" r="2.5" fill="white" opacity="0.8"/><ellipse cx="-14" cy="-4" rx="5" ry="2.5" fill="#4F8CFF" opacity="0.25"/><ellipse cx="14" cy="-4" rx="5" ry="2.5" fill="#4F8CFF" opacity="0.25"/><path d="M-5,-2 Q0,3 5,-2" stroke="#2D3748" stroke-width="1.8" fill="none" stroke-linecap="round"/><ellipse cx="-24" cy="14" rx="7" ry="5" fill="white" opacity="0.8"/><ellipse cx="24" cy="14" rx="7" ry="5" fill="white" opacity="0.8"/></g><text x="40" y="85" font-family="Arial,Helvetica,sans-serif" font-size="44" font-weight="800" fill="white" letter-spacing="1">DeepSeek</text><text x="40" y="125" font-family="Arial,Helvetica,sans-serif" font-size="24" fill="rgba(255,255,255,0.9)">开源大模型 &middot; 深度求索</text><circle cx="100" cy="165" r="12" fill="rgba(255,255,255,0.15)"/><circle cx="150" cy="175" r="7" fill="rgba(255,255,255,0.12)"/><circle cx="590" cy="175" r="9" fill="rgba(255,255,255,0.12)"/></svg>